M48
; DRILL file {KiCad 5.1.6} date Tue Jan 19 19:15:30 2021
; FORMAT={-:-/ absolute / inch / decimal}
; #@! TF.CreationDate,2021-01-19T19:15:30+01:00
; #@! TF.GenerationSoftware,Kicad,Pcbnew,5.1.6
; #@! TF.FileFunction,Plated,1,2,PTH
FMAT,2
INCH
T1C0.0157
T2C0.0394
T3C0.0400
T4C0.0906
%
G90
G05
T1
X4.8435Y-3.2572
X5.1065Y-3.2986
X5.1702Y-3.0015
X5.2005Y-3.7207
X5.2124Y-3.6774
X5.3317Y-3.5786
X5.3457Y-2.843
X5.4459Y-3.2689
X5.6077Y-2.8899
X5.7018Y-3.3667
X5.7021Y-2.8893
X5.7267Y-4.3169
X5.7433Y-3.6291
X5.753Y-3.4723
X5.7599Y-4.0743
X5.8177Y-4.3645
X5.8262Y-3.4579
X5.8411Y-4.268
X5.9133Y-4.2285
X5.9837Y-3.6119
X6.0266Y-3.4237
X6.1202Y-3.4756
X6.1576Y-3.4398
X6.1995Y-3.3978
X6.2156Y-2.8887
X6.3733Y-3.8436
X6.4127Y-3.8395
X6.6236Y-3.0409
X6.6248Y-3.1004
X6.9435Y-2.8905
X6.9814Y-3.9406
X6.9947Y-2.808
T2
X6.6807Y-2.8077
X6.6807Y-2.9077
X6.6807Y-3.0077
X6.6807Y-3.1077
X6.6807Y-3.2077
X6.6807Y-3.3077
X6.6807Y-3.4077
X6.6807Y-3.5077
X6.6807Y-3.6077
X6.6807Y-3.7077
X6.6807Y-3.8077
X6.6807Y-3.9077
X6.6807Y-4.0077
X6.6807Y-4.1077
X6.6807Y-4.2077
X6.6807Y-4.3077
X6.6807Y-4.4077
X6.7557Y-2.7577
X6.7557Y-2.8577
X6.7557Y-2.9577
X6.7557Y-3.0577
X6.7557Y-3.1577
X6.7557Y-3.2577
X6.7557Y-3.3577
X6.7557Y-3.4577
X6.7557Y-3.5577
X6.7557Y-3.6577
X6.7557Y-3.7577
X6.7557Y-3.8577
X6.7557Y-3.9577
X6.7557Y-4.0577
X6.7557Y-4.1577
X6.7557Y-4.2577
X6.7557Y-4.3577
X6.8307Y-2.8077
X6.8307Y-2.9077
X6.8307Y-3.0077
X6.8307Y-3.1077
X6.8307Y-3.2077
X6.8307Y-3.3077
X6.8307Y-3.4077
X6.8307Y-3.5077
X6.8307Y-3.6077
X6.8307Y-3.7077
X6.8307Y-3.8077
X6.8307Y-3.9077
X6.8307Y-4.0077
X6.8307Y-4.1077
X6.8307Y-4.2077
X6.8307Y-4.3077
X6.8307Y-4.4077
X6.9057Y-2.7577
X6.9057Y-2.8577
X6.9057Y-2.9577
X6.9057Y-3.0577
X6.9057Y-3.1577
X6.9057Y-3.2577
X6.9057Y-3.3577
X6.9057Y-3.4577
X6.9057Y-3.5577
X6.9057Y-3.6577
X6.9057Y-3.7577
X6.9057Y-3.8577
X6.9057Y-3.9577
X6.9057Y-4.0577
X6.9057Y-4.1577
X6.9057Y-4.2577
X6.9057Y-4.3577
T3
X2.4418Y-2.7169
X2.5418Y-2.7169
X2.6418Y-2.7169
X2.7418Y-2.7169
X2.8018Y-4.6169
X2.8418Y-2.7169
X2.9018Y-4.6169
X2.9418Y-2.7169
X3.0018Y-4.6169
X3.0418Y-2.7169
X3.1018Y-4.6169
X3.1418Y-2.7169
X3.2018Y-4.6169
X3.2418Y-2.7169
X3.3018Y-4.6169
X3.3418Y-2.7169
X3.4018Y-4.6169
X3.5018Y-2.7169
X3.5018Y-4.6169
X3.6018Y-2.7169
X3.7018Y-2.7169
X3.7018Y-4.6169
X3.8018Y-2.7169
X3.8018Y-4.6169
X3.9018Y-2.7169
X3.9018Y-4.6169
X4.0018Y-2.7169
X4.0018Y-4.6169
X4.1018Y-2.7169
X4.1018Y-4.6169
X4.2018Y-2.7169
X4.2018Y-4.6169
X4.2068Y-3.5169
X4.2068Y-3.6169
X4.2068Y-3.7169
X4.3018Y-4.6169
X4.3068Y-3.5169
X4.3068Y-3.6169
X4.3068Y-3.7169
X4.4018Y-2.7169
X4.4018Y-4.6169
X4.5018Y-2.7169
X4.6018Y-2.7169
X4.6018Y-4.6169
X4.7018Y-2.7169
X4.7018Y-4.6169
X4.8018Y-2.7169
X4.8018Y-4.6169
X4.9018Y-2.7169
X4.9018Y-4.6169
X5.0018Y-2.7169
X5.0018Y-4.6169
X5.1018Y-2.7169
X5.1018Y-4.6169
X5.2018Y-4.6169
X5.3018Y-4.6169
X5.4018Y-2.7169
X5.4018Y-2.8169
X5.4018Y-2.9169
X5.4018Y-3.0169
X5.4018Y-3.1169
X5.4018Y-3.2169
X5.4018Y-3.3169
X5.4018Y-3.4169
X5.4018Y-3.5169
X5.4018Y-3.6169
X5.4018Y-3.7169
X5.4018Y-3.8169
X5.4018Y-3.9169
X5.4018Y-4.0169
X5.4018Y-4.1169
X5.4018Y-4.2169
X5.4018Y-4.3169
X5.4018Y-4.4169
X5.5018Y-2.7169
X5.5018Y-2.8169
X5.5018Y-2.9169
X5.5018Y-3.0169
X5.5018Y-3.1169
X5.5018Y-3.2169
X5.5018Y-3.3169
X5.5018Y-3.4169
X5.5018Y-3.5169
X5.5018Y-3.6169
X5.5018Y-3.7169
X5.5018Y-3.8169
X5.5018Y-3.9169
X5.5018Y-4.0169
X5.5018Y-4.1169
X5.5018Y-4.2169
X5.5018Y-4.3169
X5.5018Y-4.4169
T4
X6.8898Y-2.5577
X6.8898Y-4.6077
X8.426Y-2.4606
X8.426Y-4.7047
T0
M30
