G04 #@! TF.GenerationSoftware,KiCad,Pcbnew,5.1.6*
G04 #@! TF.CreationDate,2021-01-19T19:15:35+01:00*
G04 #@! TF.ProjectId,arduino-wirewrap,61726475-696e-46f2-9d77-697265777261,rev?*
G04 #@! TF.SameCoordinates,Original*
G04 #@! TF.FileFunction,Copper,L1,Top*
G04 #@! TF.FilePolarity,Positive*
%FSLAX46Y46*%
G04 Gerber Fmt 4.6, Leading zero omitted, Abs format (unit mm)*
G04 Created by KiCad (PCBNEW 5.1.6) date 2021-01-19 19:15:35*
%MOMM*%
%LPD*%
G01*
G04 APERTURE LIST*
G04 #@! TA.AperFunction,ComponentPad*
%ADD10R,6.000000X6.000000*%
G04 #@! TD*
G04 #@! TA.AperFunction,ComponentPad*
%ADD11C,1.270000*%
G04 #@! TD*
G04 #@! TA.AperFunction,ComponentPad*
%ADD12O,1.727200X1.727200*%
G04 #@! TD*
G04 #@! TA.AperFunction,ViaPad*
%ADD13C,0.800000*%
G04 #@! TD*
G04 #@! TA.AperFunction,Conductor*
%ADD14C,0.250000*%
G04 #@! TD*
G04 APERTURE END LIST*
D10*
X214020000Y-62500000D03*
X214020000Y-119500000D03*
X175000000Y-64965000D03*
X175000000Y-117035000D03*
D11*
X175405000Y-70045000D03*
X173500000Y-71315000D03*
X175405000Y-72585000D03*
X173500000Y-73855000D03*
X175405000Y-75125000D03*
X173500000Y-76395000D03*
X175405000Y-77665000D03*
X173500000Y-78935000D03*
X175405000Y-80205000D03*
X173500000Y-81475000D03*
X175405000Y-82745000D03*
X173500000Y-84015000D03*
X175405000Y-85285000D03*
X173500000Y-86555000D03*
X175405000Y-87825000D03*
X173500000Y-89095000D03*
X175405000Y-90365000D03*
X173500000Y-91635000D03*
X175405000Y-92905000D03*
X173500000Y-94175000D03*
X175405000Y-95445000D03*
X173500000Y-96715000D03*
X175405000Y-97985000D03*
X173500000Y-99255000D03*
X175405000Y-100525000D03*
X173500000Y-101795000D03*
X175405000Y-103065000D03*
X173500000Y-104335000D03*
X175405000Y-105605000D03*
X173500000Y-106875000D03*
X175405000Y-108145000D03*
X173500000Y-109415000D03*
X175405000Y-110685000D03*
X173500000Y-111955000D03*
X171595000Y-70045000D03*
X169690000Y-71315000D03*
X171595000Y-72585000D03*
X169690000Y-73855000D03*
X171595000Y-75125000D03*
X169690000Y-76395000D03*
X171595000Y-77665000D03*
X169690000Y-78935000D03*
X171595000Y-80205000D03*
X169690000Y-81475000D03*
X171595000Y-82745000D03*
X169690000Y-84015000D03*
X171595000Y-85285000D03*
X169690000Y-86555000D03*
X171595000Y-87825000D03*
X169690000Y-89095000D03*
X171595000Y-90365000D03*
X169690000Y-91635000D03*
X171595000Y-92905000D03*
X169690000Y-94175000D03*
X171595000Y-95445000D03*
X169690000Y-96715000D03*
X171595000Y-97985000D03*
X169690000Y-99255000D03*
X171595000Y-100525000D03*
X169690000Y-101795000D03*
X171595000Y-103065000D03*
X169690000Y-104335000D03*
X171595000Y-105605000D03*
X169690000Y-106875000D03*
X171595000Y-108145000D03*
X169690000Y-109415000D03*
X171595000Y-110685000D03*
X169690000Y-111955000D03*
D12*
X106852000Y-89330000D03*
X139745000Y-112190000D03*
X137205000Y-112190000D03*
X139745000Y-109650000D03*
X137205000Y-109650000D03*
X139745000Y-107110000D03*
X137205000Y-107110000D03*
X139745000Y-104570000D03*
X137205000Y-104570000D03*
X139745000Y-102030000D03*
X137205000Y-102030000D03*
X139745000Y-99490000D03*
X137205000Y-99490000D03*
X139745000Y-96950000D03*
X137205000Y-96950000D03*
X139745000Y-94410000D03*
X137205000Y-94410000D03*
X139745000Y-91870000D03*
X137205000Y-91870000D03*
X139745000Y-89330000D03*
X137205000Y-89330000D03*
X139745000Y-86790000D03*
X137205000Y-86790000D03*
X139745000Y-84250000D03*
X137205000Y-84250000D03*
X139745000Y-81710000D03*
X137205000Y-81710000D03*
X139745000Y-79170000D03*
X137205000Y-79170000D03*
X139745000Y-76630000D03*
X137205000Y-76630000D03*
X139745000Y-74090000D03*
X137205000Y-74090000D03*
X139745000Y-71550000D03*
X137205000Y-71550000D03*
X139745000Y-69010000D03*
X137205000Y-69010000D03*
X134665000Y-117270000D03*
X132125000Y-117270000D03*
X129585000Y-117270000D03*
X127045000Y-117270000D03*
X124505000Y-117270000D03*
X121965000Y-117270000D03*
X119425000Y-117270000D03*
X116885000Y-117270000D03*
X111805000Y-117270000D03*
X109265000Y-117270000D03*
X106725000Y-117270000D03*
X104185000Y-117270000D03*
X101645000Y-117270000D03*
X99105000Y-117270000D03*
X96565000Y-117270000D03*
X71165000Y-117270000D03*
X77261000Y-69010000D03*
X74721000Y-69010000D03*
X72181000Y-69010000D03*
X67101000Y-69010000D03*
X64561000Y-69010000D03*
X62021000Y-69010000D03*
X79801000Y-69010000D03*
X82341000Y-69010000D03*
X84881000Y-69010000D03*
X69641000Y-69010000D03*
X88945000Y-69010000D03*
X91485000Y-69010000D03*
X94025000Y-69010000D03*
X96565000Y-69010000D03*
X99105000Y-69010000D03*
X101645000Y-69010000D03*
X104185000Y-69010000D03*
X106725000Y-69010000D03*
X111805000Y-69010000D03*
X114345000Y-69010000D03*
X116885000Y-69010000D03*
X119425000Y-69010000D03*
X121965000Y-69010000D03*
X124505000Y-69010000D03*
X127045000Y-69010000D03*
X129585000Y-69010000D03*
X73705000Y-117270000D03*
X76245000Y-117270000D03*
X78785000Y-117270000D03*
X81325000Y-117270000D03*
X83865000Y-117270000D03*
X86405000Y-117270000D03*
X88945000Y-117270000D03*
X94025000Y-117270000D03*
X109392000Y-89330000D03*
X106852000Y-91870000D03*
X109392000Y-91870000D03*
X109392000Y-94410000D03*
X106852000Y-94410000D03*
D13*
X135425700Y-90895700D03*
X157467500Y-86304700D03*
X144833200Y-73388200D03*
X131322400Y-76239000D03*
X153076500Y-86960900D03*
X155453800Y-88281200D03*
X161882800Y-97627700D03*
X151986300Y-91741500D03*
X144824500Y-85514900D03*
X138325700Y-83029100D03*
X176364500Y-73418800D03*
X148363600Y-108407500D03*
X150199000Y-107405100D03*
X147770600Y-110859300D03*
X145458400Y-109650000D03*
X147985800Y-87831600D03*
X146125600Y-88196200D03*
X145878900Y-92178500D03*
X162883200Y-97522900D03*
X177326800Y-100091900D03*
X157876600Y-73372000D03*
X168270100Y-78750300D03*
X156402400Y-87369800D03*
X142435600Y-73403000D03*
X177665100Y-71322000D03*
X123026100Y-82733100D03*
X129704600Y-83785000D03*
X132395000Y-93405600D03*
X135781100Y-72213200D03*
X132092800Y-94505400D03*
X168240500Y-77239400D03*
X146301200Y-103488200D03*
D14*
X139745000Y-112190000D02*
X169455000Y-112190000D01*
X169455000Y-112190000D02*
X169690000Y-111955000D01*
X137205000Y-112190000D02*
X139745000Y-112190000D01*
X89185600Y-114175000D02*
X89185600Y-89743500D01*
X89185600Y-89743500D02*
X69641000Y-70198900D01*
X87593900Y-117270000D02*
X87593900Y-115766700D01*
X87593900Y-115766700D02*
X89185600Y-114175000D01*
X89185600Y-114175000D02*
X134031100Y-114175000D01*
X134031100Y-114175000D02*
X136016100Y-112190000D01*
X69641000Y-69010000D02*
X69641000Y-70198900D01*
X86405000Y-117270000D02*
X87593900Y-117270000D01*
X83865000Y-117270000D02*
X86405000Y-117270000D01*
X137205000Y-112190000D02*
X136016100Y-112190000D01*
X135425700Y-90895700D02*
X135425700Y-91779200D01*
X135425700Y-91779200D02*
X136734200Y-93087700D01*
X136734200Y-93087700D02*
X137565100Y-93087700D01*
X137565100Y-93087700D02*
X138556000Y-94078600D01*
X138556000Y-94078600D02*
X138556000Y-94924300D01*
X138556000Y-94924300D02*
X139247800Y-95616100D01*
X139247800Y-95616100D02*
X142953000Y-95616100D01*
X142953000Y-95616100D02*
X149131900Y-101795000D01*
X149131900Y-101795000D02*
X169690000Y-101795000D01*
X169690000Y-91635000D02*
X162797800Y-91635000D01*
X162797800Y-91635000D02*
X157467500Y-86304700D01*
X139745000Y-69010000D02*
X140933900Y-69010000D01*
X140933900Y-69010000D02*
X140933900Y-69488900D01*
X140933900Y-69488900D02*
X144833200Y-73388200D01*
X171595000Y-90365000D02*
X172230000Y-90365000D01*
X172230000Y-90365000D02*
X173500000Y-91635000D01*
X139745000Y-76630000D02*
X140933900Y-76630000D01*
X140933900Y-76630000D02*
X142278400Y-77974500D01*
X142278400Y-77974500D02*
X170519300Y-77974500D01*
X170519300Y-77974500D02*
X171320400Y-78775600D01*
X171320400Y-78775600D02*
X171614200Y-78775600D01*
X171614200Y-78775600D02*
X173043600Y-80205000D01*
X173043600Y-80205000D02*
X175405000Y-80205000D01*
X139745000Y-79170000D02*
X140933900Y-79170000D01*
X140933900Y-79170000D02*
X141693300Y-79929400D01*
X141693300Y-79929400D02*
X169593000Y-79929400D01*
X169593000Y-79929400D02*
X171138600Y-81475000D01*
X171138600Y-81475000D02*
X173500000Y-81475000D01*
X137205000Y-79170000D02*
X134253400Y-79170000D01*
X134253400Y-79170000D02*
X131322400Y-76239000D01*
X171595000Y-92905000D02*
X171369700Y-92679700D01*
X171369700Y-92679700D02*
X162738100Y-92679700D01*
X162738100Y-92679700D02*
X156702900Y-86644500D01*
X156702900Y-86644500D02*
X153392900Y-86644500D01*
X153392900Y-86644500D02*
X153076500Y-86960900D01*
X155453800Y-88281200D02*
X161347600Y-94175000D01*
X161347600Y-94175000D02*
X169690000Y-94175000D01*
X161882800Y-97627700D02*
X157872500Y-97627700D01*
X157872500Y-97627700D02*
X151986300Y-91741500D01*
X72181000Y-69010000D02*
X73369900Y-69010000D01*
X73369900Y-69010000D02*
X73369900Y-68638500D01*
X73369900Y-68638500D02*
X77229800Y-64778600D01*
X77229800Y-64778600D02*
X166815000Y-64778600D01*
X166815000Y-64778600D02*
X170326800Y-68290400D01*
X170326800Y-68290400D02*
X175662900Y-68290400D01*
X175662900Y-68290400D02*
X176939700Y-69567200D01*
X176939700Y-69567200D02*
X176939700Y-72069900D01*
X176939700Y-72069900D02*
X177094300Y-72224500D01*
X177094300Y-72224500D02*
X177094300Y-86135700D01*
X177094300Y-86135700D02*
X175405000Y-87825000D01*
X173500000Y-89095000D02*
X171138600Y-89095000D01*
X171138600Y-89095000D02*
X169709200Y-87665600D01*
X169709200Y-87665600D02*
X161391500Y-87665600D01*
X161391500Y-87665600D02*
X158482700Y-84756800D01*
X158482700Y-84756800D02*
X144524100Y-84756800D01*
X144524100Y-84756800D02*
X143835600Y-85445300D01*
X143835600Y-85445300D02*
X133027600Y-85445300D01*
X133027600Y-85445300D02*
X129139900Y-81557600D01*
X129139900Y-81557600D02*
X88085800Y-81557600D01*
X88085800Y-81557600D02*
X75909900Y-69381700D01*
X75909900Y-69381700D02*
X75909900Y-69010000D01*
X74721000Y-69010000D02*
X75909900Y-69010000D01*
X78449900Y-69010000D02*
X78449900Y-69381500D01*
X78449900Y-69381500D02*
X89958800Y-80890400D01*
X89958800Y-80890400D02*
X134458000Y-80890400D01*
X134458000Y-80890400D02*
X136596700Y-83029100D01*
X136596700Y-83029100D02*
X138325700Y-83029100D01*
X77261000Y-69010000D02*
X78449900Y-69010000D01*
X175405000Y-92905000D02*
X173043600Y-92905000D01*
X173043600Y-92905000D02*
X171614200Y-91475600D01*
X171614200Y-91475600D02*
X171320400Y-91475600D01*
X171320400Y-91475600D02*
X170209800Y-90365000D01*
X170209800Y-90365000D02*
X163043000Y-90365000D01*
X163043000Y-90365000D02*
X158192900Y-85514900D01*
X158192900Y-85514900D02*
X144824500Y-85514900D01*
X80989900Y-69010000D02*
X80989900Y-68638500D01*
X80989900Y-68638500D02*
X84399400Y-65229000D01*
X84399400Y-65229000D02*
X165599200Y-65229000D01*
X165599200Y-65229000D02*
X169123600Y-68753400D01*
X169123600Y-68753400D02*
X175481600Y-68753400D01*
X175481600Y-68753400D02*
X176369600Y-69641400D01*
X176369600Y-69641400D02*
X176369600Y-73413700D01*
X176369600Y-73413700D02*
X176364500Y-73418800D01*
X79801000Y-69010000D02*
X80989900Y-69010000D01*
X138393900Y-107110000D02*
X138393900Y-107481500D01*
X138393900Y-107481500D02*
X139319900Y-108407500D01*
X139319900Y-108407500D02*
X148363600Y-108407500D01*
X137205000Y-107110000D02*
X138393900Y-107110000D01*
X139745000Y-107110000D02*
X140933900Y-107110000D01*
X140933900Y-107110000D02*
X149903900Y-107110000D01*
X149903900Y-107110000D02*
X150199000Y-107405100D01*
X138393900Y-109650000D02*
X138393900Y-110021500D01*
X138393900Y-110021500D02*
X139231700Y-110859300D01*
X139231700Y-110859300D02*
X147770600Y-110859300D01*
X137205000Y-109650000D02*
X138393900Y-109650000D01*
X140933900Y-84250000D02*
X167385000Y-84250000D01*
X167385000Y-84250000D02*
X169690000Y-86555000D01*
X139745000Y-84250000D02*
X140933900Y-84250000D01*
X137205000Y-81710000D02*
X138393900Y-81710000D01*
X138393900Y-81710000D02*
X138393900Y-82056000D01*
X138393900Y-82056000D02*
X139317900Y-82980000D01*
X139317900Y-82980000D02*
X167269800Y-82980000D01*
X167269800Y-82980000D02*
X169415400Y-85125600D01*
X169415400Y-85125600D02*
X169635700Y-85125600D01*
X169635700Y-85125600D02*
X171595000Y-87084900D01*
X171595000Y-87084900D02*
X171595000Y-87825000D01*
X139745000Y-109650000D02*
X145458400Y-109650000D01*
X147985800Y-87831600D02*
X151983500Y-87831600D01*
X151983500Y-87831600D02*
X159596900Y-95445000D01*
X159596900Y-95445000D02*
X171595000Y-95445000D01*
X169690000Y-96715000D02*
X168870400Y-95895400D01*
X168870400Y-95895400D02*
X157802900Y-95895400D01*
X157802900Y-95895400D02*
X151337000Y-89429500D01*
X151337000Y-89429500D02*
X147711200Y-89429500D01*
X147711200Y-89429500D02*
X146477900Y-88196200D01*
X146477900Y-88196200D02*
X146125600Y-88196200D01*
X139745000Y-89330000D02*
X140933900Y-89330000D01*
X140933900Y-89330000D02*
X141426000Y-89822100D01*
X141426000Y-89822100D02*
X146022100Y-89822100D01*
X146022100Y-89822100D02*
X155003300Y-98803300D01*
X155003300Y-98803300D02*
X163294000Y-98803300D01*
X163294000Y-98803300D02*
X163802700Y-98294600D01*
X163802700Y-98294600D02*
X171285400Y-98294600D01*
X171285400Y-98294600D02*
X171595000Y-97985000D01*
X169690000Y-99255000D02*
X154618100Y-99255000D01*
X154618100Y-99255000D02*
X145882000Y-90518900D01*
X145882000Y-90518900D02*
X139211200Y-90518900D01*
X139211200Y-90518900D02*
X138393900Y-89701600D01*
X138393900Y-89701600D02*
X138393900Y-89330000D01*
X137205000Y-89330000D02*
X138393900Y-89330000D01*
X171595000Y-100525000D02*
X171416400Y-100703600D01*
X171416400Y-100703600D02*
X154404000Y-100703600D01*
X154404000Y-100703600D02*
X145878900Y-92178500D01*
X162883200Y-97522900D02*
X161864800Y-96504500D01*
X161864800Y-96504500D02*
X157775100Y-96504500D01*
X157775100Y-96504500D02*
X152110500Y-90839900D01*
X152110500Y-90839900D02*
X148313700Y-90839900D01*
X148313700Y-90839900D02*
X146395300Y-88921500D01*
X146395300Y-88921500D02*
X145825200Y-88921500D01*
X145825200Y-88921500D02*
X143693700Y-86790000D01*
X143693700Y-86790000D02*
X140933900Y-86790000D01*
X139745000Y-86790000D02*
X140933900Y-86790000D01*
X118073900Y-69010000D02*
X118073900Y-68638500D01*
X118073900Y-68638500D02*
X120544500Y-66167900D01*
X120544500Y-66167900D02*
X162539800Y-66167900D01*
X162539800Y-66167900D02*
X168659100Y-72287200D01*
X168659100Y-72287200D02*
X170166400Y-72287200D01*
X170166400Y-72287200D02*
X170862400Y-71591200D01*
X170862400Y-71591200D02*
X173223800Y-71591200D01*
X173223800Y-71591200D02*
X173500000Y-71315000D01*
X116885000Y-69010000D02*
X118073900Y-69010000D01*
X123153900Y-117270000D02*
X123153900Y-117641500D01*
X123153900Y-117641500D02*
X124716000Y-119203600D01*
X124716000Y-119203600D02*
X166365100Y-119203600D01*
X166365100Y-119203600D02*
X171859100Y-113709600D01*
X171859100Y-113709600D02*
X173771900Y-113709600D01*
X173771900Y-113709600D02*
X177326800Y-110154700D01*
X177326800Y-110154700D02*
X177326800Y-100091900D01*
X121965000Y-117270000D02*
X123153900Y-117270000D01*
X99105000Y-69010000D02*
X100293900Y-69010000D01*
X100293900Y-69010000D02*
X100293900Y-69381500D01*
X100293900Y-69381500D02*
X101117400Y-70205000D01*
X101117400Y-70205000D02*
X119960800Y-70205000D01*
X119960800Y-70205000D02*
X120695000Y-69470800D01*
X120695000Y-69470800D02*
X120695000Y-68542700D01*
X120695000Y-68542700D02*
X122619400Y-66618300D01*
X122619400Y-66618300D02*
X157517400Y-66618300D01*
X157517400Y-66618300D02*
X163715200Y-72816100D01*
X163715200Y-72816100D02*
X170440900Y-72816100D01*
X170440900Y-72816100D02*
X171320400Y-73695600D01*
X171320400Y-73695600D02*
X171540700Y-73695600D01*
X171540700Y-73695600D02*
X173500000Y-75654900D01*
X173500000Y-75654900D02*
X173500000Y-76395000D01*
X102833900Y-69010000D02*
X102833900Y-68638500D01*
X102833900Y-68638500D02*
X105754900Y-65717500D01*
X105754900Y-65717500D02*
X165450800Y-65717500D01*
X165450800Y-65717500D02*
X170738700Y-71005400D01*
X170738700Y-71005400D02*
X172104600Y-71005400D01*
X172104600Y-71005400D02*
X172817400Y-70292600D01*
X172817400Y-70292600D02*
X173894400Y-70292600D01*
X173894400Y-70292600D02*
X174499100Y-70897300D01*
X174499100Y-70897300D02*
X174499100Y-71674200D01*
X174499100Y-71674200D02*
X174402000Y-71771300D01*
X174402000Y-71771300D02*
X174402000Y-72944100D01*
X174402000Y-72944100D02*
X174499100Y-73041200D01*
X174499100Y-73041200D02*
X174499100Y-74214200D01*
X174499100Y-74214200D02*
X174395400Y-74317900D01*
X174395400Y-74317900D02*
X174395400Y-75841800D01*
X174395400Y-75841800D02*
X175405000Y-76851400D01*
X175405000Y-76851400D02*
X175405000Y-77665000D01*
X101645000Y-69010000D02*
X102833900Y-69010000D01*
X125693900Y-69010000D02*
X125693900Y-68638500D01*
X125693900Y-68638500D02*
X127259400Y-67073000D01*
X127259400Y-67073000D02*
X151577600Y-67073000D01*
X151577600Y-67073000D02*
X157876600Y-73372000D01*
X124505000Y-69010000D02*
X125693900Y-69010000D01*
X168270100Y-78750300D02*
X141223400Y-78750300D01*
X141223400Y-78750300D02*
X140292100Y-77819000D01*
X140292100Y-77819000D02*
X134378600Y-77819000D01*
X134378600Y-77819000D02*
X132073300Y-75513700D01*
X132073300Y-75513700D02*
X101346100Y-75513700D01*
X101346100Y-75513700D02*
X95213900Y-69381500D01*
X95213900Y-69381500D02*
X95213900Y-69010000D01*
X94025000Y-69010000D02*
X95213900Y-69010000D01*
X88945000Y-69010000D02*
X90133900Y-69010000D01*
X90133900Y-69010000D02*
X90133900Y-69381500D01*
X90133900Y-69381500D02*
X101192400Y-80440000D01*
X101192400Y-80440000D02*
X167269800Y-80440000D01*
X167269800Y-80440000D02*
X169415400Y-82585600D01*
X169415400Y-82585600D02*
X169709200Y-82585600D01*
X169709200Y-82585600D02*
X171138600Y-84015000D01*
X171138600Y-84015000D02*
X173500000Y-84015000D01*
X128233900Y-69010000D02*
X128233900Y-69381500D01*
X128233900Y-69381500D02*
X134285400Y-75433000D01*
X134285400Y-75433000D02*
X170454500Y-75433000D01*
X170454500Y-75433000D02*
X171575800Y-76554300D01*
X171575800Y-76554300D02*
X171869600Y-76554300D01*
X171869600Y-76554300D02*
X172980300Y-77665000D01*
X172980300Y-77665000D02*
X173956500Y-77665000D01*
X173956500Y-77665000D02*
X175385800Y-79094300D01*
X175385800Y-79094300D02*
X175679600Y-79094300D01*
X175679600Y-79094300D02*
X176368700Y-79783400D01*
X176368700Y-79783400D02*
X176368700Y-84321300D01*
X176368700Y-84321300D02*
X175405000Y-85285000D01*
X127045000Y-69010000D02*
X128233900Y-69010000D01*
X173500000Y-86555000D02*
X173500000Y-87368500D01*
X173500000Y-87368500D02*
X174509500Y-88378000D01*
X174509500Y-88378000D02*
X174509500Y-89902300D01*
X174509500Y-89902300D02*
X174405800Y-90006000D01*
X174405800Y-90006000D02*
X174405800Y-90772200D01*
X174405800Y-90772200D02*
X175268600Y-91635000D01*
X175268600Y-91635000D02*
X175512500Y-91635000D01*
X175512500Y-91635000D02*
X176365400Y-92487900D01*
X176365400Y-92487900D02*
X176365400Y-93378100D01*
X176365400Y-93378100D02*
X175568500Y-94175000D01*
X175568500Y-94175000D02*
X174948600Y-94175000D01*
X174948600Y-94175000D02*
X173926100Y-95197500D01*
X173926100Y-95197500D02*
X172786700Y-95197500D01*
X172786700Y-95197500D02*
X171764200Y-94175000D01*
X171764200Y-94175000D02*
X171138600Y-94175000D01*
X171138600Y-94175000D02*
X170178200Y-93214600D01*
X170178200Y-93214600D02*
X162247200Y-93214600D01*
X162247200Y-93214600D02*
X156402400Y-87369800D01*
X130773900Y-69010000D02*
X130773900Y-69158600D01*
X130773900Y-69158600D02*
X134626500Y-73011200D01*
X134626500Y-73011200D02*
X136081600Y-73011200D01*
X136081600Y-73011200D02*
X136241000Y-72851800D01*
X136241000Y-72851800D02*
X141884400Y-72851800D01*
X141884400Y-72851800D02*
X142435600Y-73403000D01*
X129585000Y-69010000D02*
X130773900Y-69010000D01*
X173500000Y-99255000D02*
X171416500Y-99255000D01*
X171416500Y-99255000D02*
X170418300Y-100253200D01*
X170418300Y-100253200D02*
X154979400Y-100253200D01*
X154979400Y-100253200D02*
X146179400Y-91453200D01*
X146179400Y-91453200D02*
X145578500Y-91453200D01*
X145578500Y-91453200D02*
X143968300Y-93063400D01*
X143968300Y-93063400D02*
X139215800Y-93063400D01*
X139215800Y-93063400D02*
X138393900Y-92241500D01*
X138393900Y-92241500D02*
X138393900Y-91870000D01*
X137205000Y-91870000D02*
X138393900Y-91870000D01*
X177665100Y-71322000D02*
X177665100Y-98264900D01*
X177665100Y-98264900D02*
X175405000Y-100525000D01*
X173500000Y-101795000D02*
X173500000Y-100981500D01*
X173500000Y-100981500D02*
X174474000Y-100007500D01*
X174474000Y-100007500D02*
X174474000Y-98813500D01*
X174474000Y-98813500D02*
X173645500Y-97985000D01*
X173645500Y-97985000D02*
X173043600Y-97985000D01*
X173043600Y-97985000D02*
X172043400Y-96984800D01*
X172043400Y-96984800D02*
X171094900Y-96984800D01*
X171094900Y-96984800D02*
X170235500Y-97844200D01*
X170235500Y-97844200D02*
X163587700Y-97844200D01*
X163587700Y-97844200D02*
X163078900Y-98353000D01*
X163078900Y-98353000D02*
X155189900Y-98353000D01*
X155189900Y-98353000D02*
X146208700Y-89371800D01*
X146208700Y-89371800D02*
X145638600Y-89371800D01*
X145638600Y-89371800D02*
X144373200Y-88106400D01*
X144373200Y-88106400D02*
X135051800Y-88106400D01*
X135051800Y-88106400D02*
X129678500Y-82733100D01*
X129678500Y-82733100D02*
X123026100Y-82733100D01*
X127045000Y-117270000D02*
X128233900Y-117270000D01*
X128233900Y-117270000D02*
X128233900Y-116898500D01*
X128233900Y-116898500D02*
X129827200Y-115305200D01*
X129827200Y-115305200D02*
X169428800Y-115305200D01*
X169428800Y-115305200D02*
X171487400Y-113246600D01*
X171487400Y-113246600D02*
X173598000Y-113246600D01*
X173598000Y-113246600D02*
X174502900Y-112341700D01*
X174502900Y-112341700D02*
X174502900Y-111595700D01*
X174502900Y-111595700D02*
X174398300Y-111491100D01*
X174398300Y-111491100D02*
X174398300Y-109965300D01*
X174398300Y-109965300D02*
X175405000Y-108958600D01*
X175405000Y-108958600D02*
X175405000Y-108145000D01*
X173500000Y-109415000D02*
X173500000Y-110228600D01*
X173500000Y-110228600D02*
X169020900Y-114707700D01*
X169020900Y-114707700D02*
X127884700Y-114707700D01*
X127884700Y-114707700D02*
X125693900Y-116898500D01*
X125693900Y-116898500D02*
X125693900Y-117270000D01*
X124505000Y-117270000D02*
X125693900Y-117270000D01*
X139745000Y-102030000D02*
X138475000Y-100760000D01*
X138475000Y-100760000D02*
X136784400Y-100760000D01*
X136784400Y-100760000D02*
X133631200Y-97606800D01*
X133631200Y-97606800D02*
X133631200Y-87711600D01*
X133631200Y-87711600D02*
X129704600Y-83785000D01*
X137205000Y-104570000D02*
X137205000Y-103381100D01*
X137205000Y-103381100D02*
X136833500Y-103381100D01*
X136833500Y-103381100D02*
X132946600Y-99494200D01*
X132946600Y-99494200D02*
X132946600Y-93957200D01*
X132946600Y-93957200D02*
X132395000Y-93405600D01*
X138556100Y-104570000D02*
X138556100Y-104941500D01*
X138556100Y-104941500D02*
X137712700Y-105784900D01*
X137712700Y-105784900D02*
X136678900Y-105784900D01*
X136678900Y-105784900D02*
X132092800Y-101198800D01*
X132092800Y-101198800D02*
X132092800Y-94505400D01*
X171595000Y-75125000D02*
X171303100Y-74833100D01*
X171303100Y-74833100D02*
X156503600Y-74833100D01*
X156503600Y-74833100D02*
X149449200Y-67778700D01*
X149449200Y-67778700D02*
X139241000Y-67778700D01*
X139241000Y-67778700D02*
X138475000Y-68544700D01*
X138475000Y-68544700D02*
X138475000Y-69422400D01*
X138475000Y-69422400D02*
X137536400Y-70361000D01*
X137536400Y-70361000D02*
X136659900Y-70361000D01*
X136659900Y-70361000D02*
X135781100Y-71239800D01*
X135781100Y-71239800D02*
X135781100Y-72213200D01*
X139745000Y-104570000D02*
X138556100Y-104570000D01*
X168240500Y-77239400D02*
X168361100Y-77360000D01*
X168361100Y-77360000D02*
X171290000Y-77360000D01*
X171290000Y-77360000D02*
X171595000Y-77665000D01*
X171595000Y-105605000D02*
X153009200Y-105605000D01*
X153009200Y-105605000D02*
X150167100Y-102762900D01*
X150167100Y-102762900D02*
X145389800Y-102762900D01*
X145389800Y-102762900D02*
X140765800Y-98138900D01*
X140765800Y-98138900D02*
X139211200Y-98138900D01*
X139211200Y-98138900D02*
X138393900Y-97321600D01*
X138393900Y-97321600D02*
X138393900Y-96950000D01*
X137205000Y-96950000D02*
X138393900Y-96950000D01*
X169690000Y-106875000D02*
X171737900Y-106875000D01*
X171737900Y-106875000D02*
X172569000Y-106043900D01*
X172569000Y-106043900D02*
X172569000Y-105163500D01*
X172569000Y-105163500D02*
X171740500Y-104335000D01*
X171740500Y-104335000D02*
X171138600Y-104335000D01*
X171138600Y-104335000D02*
X169584400Y-102780800D01*
X169584400Y-102780800D02*
X151047200Y-102780800D01*
X151047200Y-102780800D02*
X150579000Y-102312600D01*
X150579000Y-102312600D02*
X146296500Y-102312600D01*
X146296500Y-102312600D02*
X140933900Y-96950000D01*
X139745000Y-96950000D02*
X140933900Y-96950000D01*
X171595000Y-108145000D02*
X154133500Y-108145000D01*
X154133500Y-108145000D02*
X149476700Y-103488200D01*
X149476700Y-103488200D02*
X146301200Y-103488200D01*
X169690000Y-109415000D02*
X154508500Y-109415000D01*
X154508500Y-109415000D02*
X150739100Y-105645600D01*
X150739100Y-105645600D02*
X147089500Y-105645600D01*
X147089500Y-105645600D02*
X140933900Y-99490000D01*
X139745000Y-99490000D02*
X140933900Y-99490000D01*
X137205000Y-102030000D02*
X138393900Y-102030000D01*
X138393900Y-102030000D02*
X138393900Y-102401600D01*
X138393900Y-102401600D02*
X139211200Y-103218900D01*
X139211200Y-103218900D02*
X140852900Y-103218900D01*
X140852900Y-103218900D02*
X144195500Y-106561500D01*
X144195500Y-106561500D02*
X150826700Y-106561500D01*
X150826700Y-106561500D02*
X154950200Y-110685000D01*
X154950200Y-110685000D02*
X171595000Y-110685000D01*
M02*
