G04 #@! TF.GenerationSoftware,KiCad,Pcbnew,5.1.6*
G04 #@! TF.CreationDate,2021-01-19T19:15:35+01:00*
G04 #@! TF.ProjectId,arduino-wirewrap,61726475-696e-46f2-9d77-697265777261,rev?*
G04 #@! TF.SameCoordinates,Original*
G04 #@! TF.FileFunction,Soldermask,Bot*
G04 #@! TF.FilePolarity,Negative*
%FSLAX46Y46*%
G04 Gerber Fmt 4.6, Leading zero omitted, Abs format (unit mm)*
G04 Created by KiCad (PCBNEW 5.1.6) date 2021-01-19 19:15:35*
%MOMM*%
%LPD*%
G01*
G04 APERTURE LIST*
%ADD10R,6.100000X6.100000*%
%ADD11C,1.370000*%
%ADD12O,1.827200X1.827200*%
%ADD13C,3.300000*%
G04 APERTURE END LIST*
D10*
X214020000Y-62500000D03*
X214020000Y-119500000D03*
X175000000Y-64965000D03*
X175000000Y-117035000D03*
D11*
X175405000Y-70045000D03*
X173500000Y-71315000D03*
X175405000Y-72585000D03*
X173500000Y-73855000D03*
X175405000Y-75125000D03*
X173500000Y-76395000D03*
X175405000Y-77665000D03*
X173500000Y-78935000D03*
X175405000Y-80205000D03*
X173500000Y-81475000D03*
X175405000Y-82745000D03*
X173500000Y-84015000D03*
X175405000Y-85285000D03*
X173500000Y-86555000D03*
X175405000Y-87825000D03*
X173500000Y-89095000D03*
X175405000Y-90365000D03*
X173500000Y-91635000D03*
X175405000Y-92905000D03*
X173500000Y-94175000D03*
X175405000Y-95445000D03*
X173500000Y-96715000D03*
X175405000Y-97985000D03*
X173500000Y-99255000D03*
X175405000Y-100525000D03*
X173500000Y-101795000D03*
X175405000Y-103065000D03*
X173500000Y-104335000D03*
X175405000Y-105605000D03*
X173500000Y-106875000D03*
X175405000Y-108145000D03*
X173500000Y-109415000D03*
X175405000Y-110685000D03*
X173500000Y-111955000D03*
X171595000Y-70045000D03*
X169690000Y-71315000D03*
X171595000Y-72585000D03*
X169690000Y-73855000D03*
X171595000Y-75125000D03*
X169690000Y-76395000D03*
X171595000Y-77665000D03*
X169690000Y-78935000D03*
X171595000Y-80205000D03*
X169690000Y-81475000D03*
X171595000Y-82745000D03*
X169690000Y-84015000D03*
X171595000Y-85285000D03*
X169690000Y-86555000D03*
X171595000Y-87825000D03*
X169690000Y-89095000D03*
X171595000Y-90365000D03*
X169690000Y-91635000D03*
X171595000Y-92905000D03*
X169690000Y-94175000D03*
X171595000Y-95445000D03*
X169690000Y-96715000D03*
X171595000Y-97985000D03*
X169690000Y-99255000D03*
X171595000Y-100525000D03*
X169690000Y-101795000D03*
X171595000Y-103065000D03*
X169690000Y-104335000D03*
X171595000Y-105605000D03*
X169690000Y-106875000D03*
X171595000Y-108145000D03*
X169690000Y-109415000D03*
X171595000Y-110685000D03*
X169690000Y-111955000D03*
D12*
X106852000Y-89330000D03*
X139745000Y-112190000D03*
X137205000Y-112190000D03*
X139745000Y-109650000D03*
X137205000Y-109650000D03*
X139745000Y-107110000D03*
X137205000Y-107110000D03*
X139745000Y-104570000D03*
X137205000Y-104570000D03*
X139745000Y-102030000D03*
X137205000Y-102030000D03*
X139745000Y-99490000D03*
X137205000Y-99490000D03*
X139745000Y-96950000D03*
X137205000Y-96950000D03*
X139745000Y-94410000D03*
X137205000Y-94410000D03*
X139745000Y-91870000D03*
X137205000Y-91870000D03*
X139745000Y-89330000D03*
X137205000Y-89330000D03*
X139745000Y-86790000D03*
X137205000Y-86790000D03*
X139745000Y-84250000D03*
X137205000Y-84250000D03*
X139745000Y-81710000D03*
X137205000Y-81710000D03*
X139745000Y-79170000D03*
X137205000Y-79170000D03*
X139745000Y-76630000D03*
X137205000Y-76630000D03*
X139745000Y-74090000D03*
X137205000Y-74090000D03*
X139745000Y-71550000D03*
X137205000Y-71550000D03*
X139745000Y-69010000D03*
X137205000Y-69010000D03*
X134665000Y-117270000D03*
X132125000Y-117270000D03*
X129585000Y-117270000D03*
X127045000Y-117270000D03*
X124505000Y-117270000D03*
X121965000Y-117270000D03*
X119425000Y-117270000D03*
X116885000Y-117270000D03*
X111805000Y-117270000D03*
X109265000Y-117270000D03*
X106725000Y-117270000D03*
X104185000Y-117270000D03*
X101645000Y-117270000D03*
X99105000Y-117270000D03*
X96565000Y-117270000D03*
X71165000Y-117270000D03*
X77261000Y-69010000D03*
X74721000Y-69010000D03*
X72181000Y-69010000D03*
X67101000Y-69010000D03*
X64561000Y-69010000D03*
X62021000Y-69010000D03*
D13*
X57195000Y-117270000D03*
X139745000Y-117270000D03*
X58465000Y-69010000D03*
X133395000Y-69010000D03*
X109265000Y-84250000D03*
X109265000Y-112190000D03*
D12*
X79801000Y-69010000D03*
X82341000Y-69010000D03*
X84881000Y-69010000D03*
X69641000Y-69010000D03*
X88945000Y-69010000D03*
X91485000Y-69010000D03*
X94025000Y-69010000D03*
X96565000Y-69010000D03*
X99105000Y-69010000D03*
X101645000Y-69010000D03*
X104185000Y-69010000D03*
X106725000Y-69010000D03*
X111805000Y-69010000D03*
X114345000Y-69010000D03*
X116885000Y-69010000D03*
X119425000Y-69010000D03*
X121965000Y-69010000D03*
X124505000Y-69010000D03*
X127045000Y-69010000D03*
X129585000Y-69010000D03*
X73705000Y-117270000D03*
X76245000Y-117270000D03*
X78785000Y-117270000D03*
X81325000Y-117270000D03*
X83865000Y-117270000D03*
X86405000Y-117270000D03*
X88945000Y-117270000D03*
X94025000Y-117270000D03*
X109392000Y-89330000D03*
X106852000Y-91870000D03*
X109392000Y-91870000D03*
X109392000Y-94410000D03*
X106852000Y-94410000D03*
M02*
