G04 #@! TF.GenerationSoftware,KiCad,Pcbnew,5.1.6*
G04 #@! TF.CreationDate,2021-01-19T19:15:35+01:00*
G04 #@! TF.ProjectId,arduino-wirewrap,61726475-696e-46f2-9d77-697265777261,rev?*
G04 #@! TF.SameCoordinates,Original*
G04 #@! TF.FileFunction,Copper,L2,Bot*
G04 #@! TF.FilePolarity,Positive*
%FSLAX46Y46*%
G04 Gerber Fmt 4.6, Leading zero omitted, Abs format (unit mm)*
G04 Created by KiCad (PCBNEW 5.1.6) date 2021-01-19 19:15:35*
%MOMM*%
%LPD*%
G01*
G04 APERTURE LIST*
G04 #@! TA.AperFunction,ComponentPad*
%ADD10R,6.000000X6.000000*%
G04 #@! TD*
G04 #@! TA.AperFunction,ComponentPad*
%ADD11C,1.270000*%
G04 #@! TD*
G04 #@! TA.AperFunction,ComponentPad*
%ADD12O,1.727200X1.727200*%
G04 #@! TD*
G04 #@! TA.AperFunction,ViaPad*
%ADD13C,0.800000*%
G04 #@! TD*
G04 #@! TA.AperFunction,Conductor*
%ADD14C,0.250000*%
G04 #@! TD*
G04 APERTURE END LIST*
D10*
X214020000Y-62500000D03*
X214020000Y-119500000D03*
X175000000Y-64965000D03*
X175000000Y-117035000D03*
D11*
X175405000Y-70045000D03*
X173500000Y-71315000D03*
X175405000Y-72585000D03*
X173500000Y-73855000D03*
X175405000Y-75125000D03*
X173500000Y-76395000D03*
X175405000Y-77665000D03*
X173500000Y-78935000D03*
X175405000Y-80205000D03*
X173500000Y-81475000D03*
X175405000Y-82745000D03*
X173500000Y-84015000D03*
X175405000Y-85285000D03*
X173500000Y-86555000D03*
X175405000Y-87825000D03*
X173500000Y-89095000D03*
X175405000Y-90365000D03*
X173500000Y-91635000D03*
X175405000Y-92905000D03*
X173500000Y-94175000D03*
X175405000Y-95445000D03*
X173500000Y-96715000D03*
X175405000Y-97985000D03*
X173500000Y-99255000D03*
X175405000Y-100525000D03*
X173500000Y-101795000D03*
X175405000Y-103065000D03*
X173500000Y-104335000D03*
X175405000Y-105605000D03*
X173500000Y-106875000D03*
X175405000Y-108145000D03*
X173500000Y-109415000D03*
X175405000Y-110685000D03*
X173500000Y-111955000D03*
X171595000Y-70045000D03*
X169690000Y-71315000D03*
X171595000Y-72585000D03*
X169690000Y-73855000D03*
X171595000Y-75125000D03*
X169690000Y-76395000D03*
X171595000Y-77665000D03*
X169690000Y-78935000D03*
X171595000Y-80205000D03*
X169690000Y-81475000D03*
X171595000Y-82745000D03*
X169690000Y-84015000D03*
X171595000Y-85285000D03*
X169690000Y-86555000D03*
X171595000Y-87825000D03*
X169690000Y-89095000D03*
X171595000Y-90365000D03*
X169690000Y-91635000D03*
X171595000Y-92905000D03*
X169690000Y-94175000D03*
X171595000Y-95445000D03*
X169690000Y-96715000D03*
X171595000Y-97985000D03*
X169690000Y-99255000D03*
X171595000Y-100525000D03*
X169690000Y-101795000D03*
X171595000Y-103065000D03*
X169690000Y-104335000D03*
X171595000Y-105605000D03*
X169690000Y-106875000D03*
X171595000Y-108145000D03*
X169690000Y-109415000D03*
X171595000Y-110685000D03*
X169690000Y-111955000D03*
D12*
X106852000Y-89330000D03*
X139745000Y-112190000D03*
X137205000Y-112190000D03*
X139745000Y-109650000D03*
X137205000Y-109650000D03*
X139745000Y-107110000D03*
X137205000Y-107110000D03*
X139745000Y-104570000D03*
X137205000Y-104570000D03*
X139745000Y-102030000D03*
X137205000Y-102030000D03*
X139745000Y-99490000D03*
X137205000Y-99490000D03*
X139745000Y-96950000D03*
X137205000Y-96950000D03*
X139745000Y-94410000D03*
X137205000Y-94410000D03*
X139745000Y-91870000D03*
X137205000Y-91870000D03*
X139745000Y-89330000D03*
X137205000Y-89330000D03*
X139745000Y-86790000D03*
X137205000Y-86790000D03*
X139745000Y-84250000D03*
X137205000Y-84250000D03*
X139745000Y-81710000D03*
X137205000Y-81710000D03*
X139745000Y-79170000D03*
X137205000Y-79170000D03*
X139745000Y-76630000D03*
X137205000Y-76630000D03*
X139745000Y-74090000D03*
X137205000Y-74090000D03*
X139745000Y-71550000D03*
X137205000Y-71550000D03*
X139745000Y-69010000D03*
X137205000Y-69010000D03*
X134665000Y-117270000D03*
X132125000Y-117270000D03*
X129585000Y-117270000D03*
X127045000Y-117270000D03*
X124505000Y-117270000D03*
X121965000Y-117270000D03*
X119425000Y-117270000D03*
X116885000Y-117270000D03*
X111805000Y-117270000D03*
X109265000Y-117270000D03*
X106725000Y-117270000D03*
X104185000Y-117270000D03*
X101645000Y-117270000D03*
X99105000Y-117270000D03*
X96565000Y-117270000D03*
X71165000Y-117270000D03*
X77261000Y-69010000D03*
X74721000Y-69010000D03*
X72181000Y-69010000D03*
X67101000Y-69010000D03*
X64561000Y-69010000D03*
X62021000Y-69010000D03*
X79801000Y-69010000D03*
X82341000Y-69010000D03*
X84881000Y-69010000D03*
X69641000Y-69010000D03*
X88945000Y-69010000D03*
X91485000Y-69010000D03*
X94025000Y-69010000D03*
X96565000Y-69010000D03*
X99105000Y-69010000D03*
X101645000Y-69010000D03*
X104185000Y-69010000D03*
X106725000Y-69010000D03*
X111805000Y-69010000D03*
X114345000Y-69010000D03*
X116885000Y-69010000D03*
X119425000Y-69010000D03*
X121965000Y-69010000D03*
X124505000Y-69010000D03*
X127045000Y-69010000D03*
X129585000Y-69010000D03*
X73705000Y-117270000D03*
X76245000Y-117270000D03*
X78785000Y-117270000D03*
X81325000Y-117270000D03*
X83865000Y-117270000D03*
X86405000Y-117270000D03*
X88945000Y-117270000D03*
X94025000Y-117270000D03*
X109392000Y-89330000D03*
X106852000Y-91870000D03*
X109392000Y-91870000D03*
X109392000Y-94410000D03*
X106852000Y-94410000D03*
D13*
X135425700Y-90895700D03*
X157467500Y-86304700D03*
X144833200Y-73388200D03*
X131322400Y-76239000D03*
X153076500Y-86960900D03*
X155453800Y-88281200D03*
X161882800Y-97627700D03*
X151986300Y-91741500D03*
X144824500Y-85514900D03*
X138325700Y-83029100D03*
X176364500Y-73418800D03*
X148363600Y-108407500D03*
X150199000Y-107405100D03*
X147770600Y-110859300D03*
X145458400Y-109650000D03*
X147985800Y-87831600D03*
X146125600Y-88196200D03*
X145878900Y-92178500D03*
X162883200Y-97522900D03*
X177326800Y-100091900D03*
X157876600Y-73372000D03*
X168270100Y-78750300D03*
X156402400Y-87369800D03*
X142435600Y-73403000D03*
X177665100Y-71322000D03*
X123026100Y-82733100D03*
X129704600Y-83785000D03*
X132395000Y-93405600D03*
X135781100Y-72213200D03*
X132092800Y-94505400D03*
X168240500Y-77239400D03*
X146301200Y-103488200D03*
D14*
X173500000Y-111955000D02*
X173500000Y-111204900D01*
X173500000Y-111204900D02*
X175296700Y-109408200D01*
X175296700Y-109408200D02*
X175523900Y-109408200D01*
X175523900Y-109408200D02*
X178735900Y-106196200D01*
X178735900Y-106196200D02*
X178735900Y-73418500D01*
X178735900Y-73418500D02*
X175405000Y-70087600D01*
X175405000Y-70087600D02*
X175405000Y-70045000D01*
X169690000Y-111955000D02*
X173500000Y-111955000D01*
X175405000Y-70045000D02*
X171595000Y-70045000D01*
X137205000Y-72738900D02*
X136833500Y-72738900D01*
X136833500Y-72738900D02*
X135425700Y-74146700D01*
X135425700Y-74146700D02*
X135425700Y-90895700D01*
X137205000Y-71550000D02*
X137205000Y-72738900D01*
X82513900Y-117270000D02*
X82513900Y-116898400D01*
X82513900Y-116898400D02*
X83331200Y-116081100D01*
X83331200Y-116081100D02*
X95334800Y-116081100D01*
X95334800Y-116081100D02*
X126905600Y-84510300D01*
X126905600Y-84510300D02*
X130005100Y-84510300D01*
X130005100Y-84510300D02*
X132047900Y-82467500D01*
X132047900Y-82467500D02*
X132047900Y-74225400D01*
X132047900Y-74225400D02*
X137205000Y-69068300D01*
X137205000Y-69068300D02*
X137205000Y-69010000D01*
X144833200Y-73388200D02*
X144833200Y-73670400D01*
X144833200Y-73670400D02*
X157467500Y-86304700D01*
X81325000Y-117270000D02*
X82513900Y-117270000D01*
X137205000Y-69010000D02*
X138556100Y-69010000D01*
X139745000Y-69010000D02*
X138556100Y-69010000D01*
X169690000Y-91635000D02*
X170325000Y-91635000D01*
X170325000Y-91635000D02*
X171595000Y-90365000D01*
X173500000Y-91635000D02*
X174770000Y-90365000D01*
X174770000Y-90365000D02*
X175405000Y-90365000D01*
X175405000Y-103065000D02*
X178285600Y-100184400D01*
X178285600Y-100184400D02*
X178285600Y-73677000D01*
X178285600Y-73677000D02*
X176209400Y-71600800D01*
X176209400Y-71600800D02*
X174888900Y-71600800D01*
X174888900Y-71600800D02*
X173595100Y-72894600D01*
X173595100Y-72894600D02*
X173075300Y-72894600D01*
X173075300Y-72894600D02*
X172419400Y-73550500D01*
X172419400Y-73550500D02*
X171443100Y-73550500D01*
X171443100Y-73550500D02*
X170168000Y-74825600D01*
X170168000Y-74825600D02*
X165176900Y-74825600D01*
X165176900Y-74825600D02*
X162997200Y-72645900D01*
X162997200Y-72645900D02*
X142167000Y-72645900D01*
X142167000Y-72645900D02*
X140933900Y-73879000D01*
X140933900Y-73879000D02*
X140933900Y-74090000D01*
X139745000Y-74090000D02*
X140933900Y-74090000D01*
X169690000Y-71315000D02*
X163016900Y-71315000D01*
X163016900Y-71315000D02*
X159508000Y-67806100D01*
X159508000Y-67806100D02*
X136682700Y-67806100D01*
X136682700Y-67806100D02*
X135820700Y-68668100D01*
X135820700Y-68668100D02*
X135820700Y-69815700D01*
X135820700Y-69815700D02*
X131322400Y-74314000D01*
X131322400Y-74314000D02*
X131322400Y-76239000D01*
X138393900Y-76630000D02*
X138393900Y-77001600D01*
X138393900Y-77001600D02*
X139211200Y-77818900D01*
X139211200Y-77818900D02*
X143934500Y-77818900D01*
X143934500Y-77818900D02*
X153076500Y-86960900D01*
X137205000Y-76630000D02*
X138393900Y-76630000D01*
X139745000Y-72738900D02*
X139373500Y-72738900D01*
X139373500Y-72738900D02*
X138556000Y-73556400D01*
X138556000Y-73556400D02*
X138556000Y-74604300D01*
X138556000Y-74604300D02*
X139311700Y-75360000D01*
X139311700Y-75360000D02*
X142532600Y-75360000D01*
X142532600Y-75360000D02*
X155453800Y-88281200D01*
X139745000Y-71550000D02*
X139745000Y-72738900D01*
X137205000Y-75278900D02*
X136833500Y-75278900D01*
X136833500Y-75278900D02*
X135993500Y-76118900D01*
X135993500Y-76118900D02*
X135993500Y-77158800D01*
X135993500Y-77158800D02*
X136767400Y-77932700D01*
X136767400Y-77932700D02*
X137682400Y-77932700D01*
X137682400Y-77932700D02*
X138394000Y-78644300D01*
X138394000Y-78644300D02*
X138394000Y-79501400D01*
X138394000Y-79501400D02*
X139253700Y-80361100D01*
X139253700Y-80361100D02*
X141541100Y-80361100D01*
X141541100Y-80361100D02*
X151986300Y-90806300D01*
X151986300Y-90806300D02*
X151986300Y-91741500D01*
X169690000Y-104335000D02*
X168590100Y-104335000D01*
X168590100Y-104335000D02*
X161882800Y-97627700D01*
X137205000Y-74090000D02*
X137205000Y-75278900D01*
X144824500Y-85514900D02*
X142338700Y-83029100D01*
X142338700Y-83029100D02*
X138325700Y-83029100D01*
X173500000Y-94175000D02*
X173500000Y-93434900D01*
X173500000Y-93434900D02*
X175609500Y-91325400D01*
X175609500Y-91325400D02*
X175829800Y-91325400D01*
X175829800Y-91325400D02*
X177328900Y-89826300D01*
X177328900Y-89826300D02*
X177328900Y-74383200D01*
X177328900Y-74383200D02*
X176364500Y-73418800D01*
X148363600Y-108407500D02*
X148363600Y-108210300D01*
X148363600Y-108210300D02*
X161359600Y-95214300D01*
X161359600Y-95214300D02*
X170325500Y-95214300D01*
X170325500Y-95214300D02*
X171095000Y-94444800D01*
X171095000Y-94444800D02*
X172043400Y-94444800D01*
X172043400Y-94444800D02*
X173043600Y-95445000D01*
X173043600Y-95445000D02*
X175405000Y-95445000D01*
X150199000Y-107405100D02*
X161904400Y-95699700D01*
X161904400Y-95699700D02*
X170123300Y-95699700D01*
X170123300Y-95699700D02*
X171138600Y-96715000D01*
X171138600Y-96715000D02*
X173500000Y-96715000D01*
X147770600Y-110859300D02*
X158859500Y-99770400D01*
X158859500Y-99770400D02*
X158859500Y-99625100D01*
X158859500Y-99625100D02*
X161691400Y-96793200D01*
X161691400Y-96793200D02*
X168298000Y-96793200D01*
X168298000Y-96793200D02*
X169489800Y-97985000D01*
X169489800Y-97985000D02*
X169861300Y-97985000D01*
X169861300Y-97985000D02*
X170882100Y-99005800D01*
X170882100Y-99005800D02*
X172022800Y-99005800D01*
X172022800Y-99005800D02*
X173043600Y-97985000D01*
X173043600Y-97985000D02*
X175405000Y-97985000D01*
X145458400Y-109650000D02*
X166013400Y-89095000D01*
X166013400Y-89095000D02*
X169690000Y-89095000D01*
X147985800Y-87831600D02*
X147985800Y-87617600D01*
X147985800Y-87617600D02*
X142078200Y-81710000D01*
X142078200Y-81710000D02*
X139745000Y-81710000D01*
X137205000Y-84250000D02*
X138393900Y-84250000D01*
X138393900Y-84250000D02*
X138393900Y-84621600D01*
X138393900Y-84621600D02*
X139211200Y-85438900D01*
X139211200Y-85438900D02*
X143368300Y-85438900D01*
X143368300Y-85438900D02*
X146125600Y-88196200D01*
X145878900Y-92178500D02*
X141679300Y-87978900D01*
X141679300Y-87978900D02*
X139211200Y-87978900D01*
X139211200Y-87978900D02*
X138393900Y-87161600D01*
X138393900Y-87161600D02*
X138393900Y-86790000D01*
X137205000Y-86790000D02*
X138393900Y-86790000D01*
X171595000Y-103065000D02*
X168425300Y-103065000D01*
X168425300Y-103065000D02*
X162883200Y-97522900D01*
X177326800Y-100091900D02*
X177835200Y-99583500D01*
X177835200Y-99583500D02*
X177835200Y-73863500D01*
X177835200Y-73863500D02*
X176556700Y-72585000D01*
X176556700Y-72585000D02*
X175405000Y-72585000D01*
X120613900Y-117270000D02*
X120613900Y-116898500D01*
X120613900Y-116898500D02*
X122882500Y-114629900D01*
X122882500Y-114629900D02*
X141504400Y-114629900D01*
X141504400Y-114629900D02*
X146751700Y-109382600D01*
X146751700Y-109382600D02*
X146751700Y-108993600D01*
X146751700Y-108993600D02*
X165070700Y-90674600D01*
X165070700Y-90674600D02*
X169559000Y-90674600D01*
X169559000Y-90674600D02*
X171443100Y-88790500D01*
X171443100Y-88790500D02*
X172419400Y-88790500D01*
X172419400Y-88790500D02*
X173075300Y-88134600D01*
X173075300Y-88134600D02*
X173369000Y-88134600D01*
X173369000Y-88134600D02*
X174948600Y-86555000D01*
X174948600Y-86555000D02*
X175494300Y-86555000D01*
X175494300Y-86555000D02*
X176878500Y-85170800D01*
X176878500Y-85170800D02*
X176878500Y-75228900D01*
X176878500Y-75228900D02*
X175504600Y-73855000D01*
X175504600Y-73855000D02*
X173500000Y-73855000D01*
X119425000Y-117270000D02*
X120613900Y-117270000D01*
X116885000Y-117270000D02*
X118073900Y-117270000D01*
X118073900Y-117270000D02*
X118073900Y-116898500D01*
X118073900Y-116898500D02*
X120792900Y-114179500D01*
X120792900Y-114179500D02*
X140105100Y-114179500D01*
X140105100Y-114179500D02*
X143585600Y-110699000D01*
X143585600Y-110699000D02*
X143585600Y-110440700D01*
X143585600Y-110440700D02*
X165891700Y-88134600D01*
X165891700Y-88134600D02*
X169559000Y-88134600D01*
X169559000Y-88134600D02*
X171443100Y-86250500D01*
X171443100Y-86250500D02*
X172419400Y-86250500D01*
X172419400Y-86250500D02*
X173075300Y-85594600D01*
X173075300Y-85594600D02*
X173369000Y-85594600D01*
X173369000Y-85594600D02*
X174948600Y-84015000D01*
X174948600Y-84015000D02*
X175551800Y-84015000D01*
X175551800Y-84015000D02*
X176373300Y-83193500D01*
X176373300Y-83193500D02*
X176373300Y-76093300D01*
X176373300Y-76093300D02*
X175405000Y-75125000D01*
X173500000Y-78935000D02*
X173500000Y-78194900D01*
X173500000Y-78194900D02*
X171540700Y-76235600D01*
X171540700Y-76235600D02*
X171320400Y-76235600D01*
X171320400Y-76235600D02*
X170440100Y-75355300D01*
X170440100Y-75355300D02*
X159859900Y-75355300D01*
X159859900Y-75355300D02*
X157876600Y-73372000D01*
X168270100Y-78750300D02*
X169051300Y-77969100D01*
X169051300Y-77969100D02*
X170172700Y-77969100D01*
X170172700Y-77969100D02*
X171138600Y-78935000D01*
X171138600Y-78935000D02*
X172114800Y-78935000D01*
X172114800Y-78935000D02*
X173225400Y-80045600D01*
X173225400Y-80045600D02*
X173445700Y-80045600D01*
X173445700Y-80045600D02*
X175405000Y-82004900D01*
X175405000Y-82004900D02*
X175405000Y-82745000D01*
X142435600Y-73403000D02*
X156402400Y-87369800D01*
X121965000Y-69010000D02*
X123153900Y-69010000D01*
X123153900Y-69010000D02*
X123153900Y-68638500D01*
X123153900Y-68638500D02*
X125174900Y-66617500D01*
X125174900Y-66617500D02*
X165897700Y-66617500D01*
X165897700Y-66617500D02*
X168260900Y-68980700D01*
X168260900Y-68980700D02*
X175797500Y-68980700D01*
X175797500Y-68980700D02*
X177665100Y-70848300D01*
X177665100Y-70848300D02*
X177665100Y-71322000D01*
X92673900Y-69010000D02*
X92673900Y-69381600D01*
X92673900Y-69381600D02*
X93491200Y-70198900D01*
X93491200Y-70198900D02*
X110491900Y-70198900D01*
X110491900Y-70198900D02*
X123026100Y-82733100D01*
X91485000Y-69010000D02*
X92673900Y-69010000D01*
X135853900Y-117270000D02*
X138043600Y-115080300D01*
X138043600Y-115080300D02*
X152662200Y-115080300D01*
X152662200Y-115080300D02*
X162137500Y-105605000D01*
X162137500Y-105605000D02*
X170146500Y-105605000D01*
X170146500Y-105605000D02*
X171416500Y-104335000D01*
X171416500Y-104335000D02*
X173500000Y-104335000D01*
X134665000Y-117270000D02*
X135853900Y-117270000D01*
X132125000Y-117270000D02*
X133313900Y-117270000D01*
X133313900Y-117270000D02*
X133313900Y-117641500D01*
X133313900Y-117641500D02*
X134880100Y-119207700D01*
X134880100Y-119207700D02*
X158487600Y-119207700D01*
X158487600Y-119207700D02*
X169571100Y-108124200D01*
X169571100Y-108124200D02*
X169889400Y-108124200D01*
X169889400Y-108124200D02*
X171363700Y-106649900D01*
X171363700Y-106649900D02*
X171998700Y-106649900D01*
X171998700Y-106649900D02*
X173043600Y-105605000D01*
X173043600Y-105605000D02*
X175405000Y-105605000D01*
X129585000Y-117270000D02*
X130773900Y-117270000D01*
X130773900Y-117270000D02*
X130773900Y-117641500D01*
X130773900Y-117641500D02*
X132804000Y-119671600D01*
X132804000Y-119671600D02*
X160588300Y-119671600D01*
X160588300Y-119671600D02*
X169265300Y-110994600D01*
X169265300Y-110994600D02*
X169559000Y-110994600D01*
X169559000Y-110994600D02*
X171363700Y-109189900D01*
X171363700Y-109189900D02*
X171919300Y-109189900D01*
X171919300Y-109189900D02*
X173500000Y-107609200D01*
X173500000Y-107609200D02*
X173500000Y-106875000D01*
X129704600Y-83785000D02*
X129704600Y-72170900D01*
X129704600Y-72170900D02*
X130969300Y-70906200D01*
X130969300Y-70906200D02*
X130969300Y-68709000D01*
X130969300Y-68709000D02*
X132610400Y-67067900D01*
X132610400Y-67067900D02*
X164081600Y-67067900D01*
X164081600Y-67067900D02*
X166595000Y-69581300D01*
X166595000Y-69581300D02*
X169404900Y-69581300D01*
X169404900Y-69581300D02*
X171595000Y-71771400D01*
X171595000Y-71771400D02*
X171595000Y-72585000D01*
X132395000Y-93405600D02*
X132498300Y-93302300D01*
X132498300Y-93302300D02*
X132498300Y-74411900D01*
X132498300Y-74411900D02*
X136551400Y-70358800D01*
X136551400Y-70358800D02*
X161347000Y-70358800D01*
X161347000Y-70358800D02*
X164843200Y-73855000D01*
X164843200Y-73855000D02*
X169690000Y-73855000D01*
X132092800Y-94505400D02*
X132321000Y-94505400D01*
X132321000Y-94505400D02*
X133120300Y-93706100D01*
X133120300Y-93706100D02*
X133120300Y-74874000D01*
X133120300Y-74874000D02*
X135781100Y-72213200D01*
X169690000Y-76395000D02*
X168047500Y-76395000D01*
X168047500Y-76395000D02*
X165537200Y-78905300D01*
X165537200Y-78905300D02*
X165537200Y-79260900D01*
X165537200Y-79260900D02*
X151894100Y-92904000D01*
X151894100Y-92904000D02*
X144504800Y-92904000D01*
X144504800Y-92904000D02*
X142277800Y-90677000D01*
X142277800Y-90677000D02*
X136704200Y-90677000D01*
X136704200Y-90677000D02*
X133570600Y-93810600D01*
X133570600Y-93810600D02*
X133570600Y-94053700D01*
X133570600Y-94053700D02*
X131457700Y-96166600D01*
X131457700Y-96166600D02*
X115945700Y-96166600D01*
X115945700Y-96166600D02*
X95213900Y-116898400D01*
X95213900Y-116898400D02*
X95213900Y-117270000D01*
X94025000Y-117270000D02*
X95213900Y-117270000D01*
X168240500Y-77239400D02*
X152112400Y-93367500D01*
X152112400Y-93367500D02*
X141161500Y-93367500D01*
X141161500Y-93367500D02*
X141004000Y-93210000D01*
X141004000Y-93210000D02*
X135079700Y-93210000D01*
X135079700Y-93210000D02*
X131052400Y-97237300D01*
X131052400Y-97237300D02*
X117414400Y-97237300D01*
X117414400Y-97237300D02*
X97753900Y-116897800D01*
X97753900Y-116897800D02*
X97753900Y-117270000D01*
X96565000Y-117270000D02*
X97753900Y-117270000D01*
X99105000Y-117270000D02*
X100293900Y-117270000D01*
X100293900Y-117270000D02*
X100293900Y-116749900D01*
X100293900Y-116749900D02*
X119355400Y-97688400D01*
X119355400Y-97688400D02*
X132786400Y-97688400D01*
X132786400Y-97688400D02*
X134794800Y-95680000D01*
X134794800Y-95680000D02*
X152945000Y-95680000D01*
X152945000Y-95680000D02*
X169690000Y-78935000D01*
X101645000Y-116081100D02*
X119442500Y-98283600D01*
X119442500Y-98283600D02*
X151492300Y-98283600D01*
X151492300Y-98283600D02*
X169570900Y-80205000D01*
X169570900Y-80205000D02*
X171595000Y-80205000D01*
X101645000Y-117270000D02*
X101645000Y-116081100D01*
X169690000Y-81475000D02*
X145293600Y-105871400D01*
X145293600Y-105871400D02*
X118306500Y-105871400D01*
X118306500Y-105871400D02*
X108096800Y-116081100D01*
X108096800Y-116081100D02*
X106191200Y-116081100D01*
X106191200Y-116081100D02*
X105373900Y-116898400D01*
X105373900Y-116898400D02*
X105373900Y-117270000D01*
X104185000Y-117270000D02*
X105373900Y-117270000D01*
X171595000Y-82745000D02*
X169344100Y-82745000D01*
X169344100Y-82745000D02*
X143709100Y-108380000D01*
X143709100Y-108380000D02*
X116434800Y-108380000D01*
X116434800Y-108380000D02*
X107913900Y-116900900D01*
X107913900Y-116900900D02*
X107913900Y-117270000D01*
X106725000Y-117270000D02*
X107913900Y-117270000D01*
X109265000Y-117270000D02*
X110453900Y-117270000D01*
X110453900Y-117270000D02*
X110453900Y-116898500D01*
X110453900Y-116898500D02*
X116432400Y-110920000D01*
X116432400Y-110920000D02*
X141806000Y-110920000D01*
X141806000Y-110920000D02*
X168711000Y-84015000D01*
X168711000Y-84015000D02*
X169690000Y-84015000D01*
X112993900Y-117270000D02*
X116550600Y-113713300D01*
X116550600Y-113713300D02*
X139903200Y-113713300D01*
X139903200Y-113713300D02*
X142306400Y-111310100D01*
X142306400Y-111310100D02*
X142306400Y-111083000D01*
X142306400Y-111083000D02*
X168104300Y-85285100D01*
X168104300Y-85285100D02*
X171595000Y-85285100D01*
X171595000Y-85285100D02*
X171595000Y-85285000D01*
X111805000Y-117270000D02*
X112993900Y-117270000D01*
X138393900Y-99490000D02*
X138393900Y-99861600D01*
X138393900Y-99861600D02*
X139211200Y-100678900D01*
X139211200Y-100678900D02*
X143491900Y-100678900D01*
X143491900Y-100678900D02*
X146301200Y-103488200D01*
X137205000Y-99490000D02*
X138393900Y-99490000D01*
X175405000Y-110685000D02*
X179220700Y-106869300D01*
X179220700Y-106869300D02*
X179220700Y-71767000D01*
X179220700Y-71767000D02*
X175744100Y-68290400D01*
X175744100Y-68290400D02*
X170287700Y-68290400D01*
X170287700Y-68290400D02*
X168164400Y-66167100D01*
X168164400Y-66167100D02*
X123085300Y-66167100D01*
X123085300Y-66167100D02*
X120613900Y-68638500D01*
X120613900Y-68638500D02*
X120613900Y-69010000D01*
X119425000Y-69010000D02*
X120613900Y-69010000D01*
M02*
